<?xml version="1.0" encoding="utf-8"?>
<!-- Generator: Adobe Illustrator 16.0.0, SVG Export Plug-In . SVG Version: 6.00 Build 0)  -->
<!DOCTYPE svg PUBLIC "-//W3C//DTD SVG 1.1//EN" "http://www.w3.org/Graphics/SVG/1.1/DTD/svg11.dtd">
<svg version="1.1" id="Capa_1" xmlns="http://www.w3.org/2000/svg" xmlns:xlink="http://www.w3.org/1999/xlink" x="0px" y="0px"
	 width="201.849px" height="146.395px" viewBox="0 0 201.849 146.395" enable-background="new 0 0 201.849 146.395"
	 xml:space="preserve">
<g>
	<path fill="#231F20" d="M5.014,89.724c1.225-0.211,2.684-0.349,4.28-0.349c2.896,0,4.956,0.693,6.319,1.945
		c1.414,1.273,2.225,3.078,2.225,5.6c0,2.549-0.811,4.632-2.246,6.065c-1.482,1.458-3.889,2.246-6.923,2.246
		c-1.456,0-2.636-0.067-3.655-0.185V89.724z M7.027,103.518c0.51,0.072,1.25,0.093,2.035,0.093c4.332,0,6.646-2.408,6.646-6.619
		c0.021-3.68-2.063-6.018-6.323-6.018c-1.039,0-1.828,0.091-2.358,0.207V103.518z"/>
	<path fill="#231F20" d="M21.588,99.861c0.047,2.756,1.782,3.89,3.842,3.89c1.459,0,2.364-0.254,3.104-0.578l0.368,1.456
		c-0.717,0.324-1.969,0.717-3.75,0.717c-3.448,0-5.51-2.29-5.51-5.669s1.992-6.019,5.254-6.019c3.685,0,4.631,3.193,4.631,5.255
		c0,0.417-0.02,0.718-0.067,0.948H21.588z M27.561,98.401c0.021-1.271-0.533-3.284-2.826-3.284c-2.079,0-2.961,1.875-3.123,3.284
		H27.561z"/>
	<path fill="#231F20" d="M32.26,105.094v-9.654h-1.549v-1.552h1.549v-0.532c0-1.572,0.371-3.008,1.297-3.91
		c0.765-0.74,1.783-1.043,2.732-1.043c0.741,0,1.34,0.16,1.736,0.324l-0.28,1.573c-0.301-0.138-0.692-0.254-1.295-0.254
		c-1.735,0-2.175,1.506-2.175,3.241v0.601h2.708v1.552h-2.708v9.654H32.26z"/>
	<path fill="#231F20" d="M39.646,99.861c0.042,2.756,1.781,3.89,3.844,3.89c1.457,0,2.358-0.254,3.1-0.578l0.373,1.456
		c-0.719,0.324-1.971,0.717-3.754,0.717c-3.448,0-5.508-2.29-5.508-5.669s1.987-6.019,5.256-6.019c3.679,0,4.631,3.193,4.631,5.255
		c0,0.417-0.025,0.718-0.072,0.948H39.646z M45.619,98.401c0.02-1.271-0.531-3.284-2.826-3.284c-2.086,0-2.963,1.875-3.125,3.284
		H45.619z"/>
	<path fill="#231F20" d="M50.107,96.92c0-1.178-0.021-2.105-0.093-3.031h1.806l0.119,1.854h0.045
		c0.558-1.044,1.853-2.084,3.705-2.084c1.551,0,3.957,0.925,3.957,4.768v6.668h-2.037v-6.461c0-1.804-0.67-3.31-2.592-3.31
		c-1.318,0-2.361,0.951-2.73,2.083c-0.094,0.255-0.141,0.602-0.141,0.95v6.737h-2.039V96.92z"/>
	<path fill="#231F20" d="M62.682,103.031c0.621,0.373,1.688,0.788,2.707,0.788c1.459,0,2.151-0.716,2.151-1.666
		c0-0.974-0.576-1.481-2.06-2.039c-2.037-0.736-2.985-1.826-2.985-3.17c0-1.806,1.483-3.286,3.868-3.286
		c1.133,0,2.127,0.299,2.73,0.693l-0.486,1.48c-0.44-0.275-1.25-0.671-2.291-0.671c-1.207,0-1.853,0.695-1.853,1.527
		c0,0.928,0.646,1.343,2.104,1.924c1.922,0.717,2.941,1.69,2.941,3.356c0,1.988-1.551,3.377-4.168,3.377
		c-1.225,0-2.361-0.321-3.148-0.785L62.682,103.031z"/>
	<path fill="#231F20" d="M82.266,99.399c0,4.144-2.894,5.946-5.582,5.946c-3.007,0-5.367-2.223-5.367-5.762
		c0-3.727,2.475-5.926,5.556-5.926C80.088,93.658,82.266,95.994,82.266,99.399 M73.396,99.513c0,2.456,1.393,4.308,3.383,4.308
		c1.941,0,3.4-1.829,3.4-4.352c0-1.897-0.947-4.285-3.355-4.285C74.441,95.184,73.396,97.407,73.396,99.513"/>
	<path fill="#231F20" d="M84.836,97.383c0-1.317-0.023-2.451-0.093-3.494h1.783l0.092,2.223h0.069
		c0.508-1.506,1.758-2.453,3.125-2.453c0.208,0,0.371,0.021,0.554,0.045v1.923c-0.206-0.046-0.414-0.046-0.692-0.046
		c-1.435,0-2.453,1.064-2.73,2.591c-0.048,0.277-0.07,0.624-0.07,0.949v5.974h-2.037V97.383z"/>
	<path fill="#231F20" d="M96.643,89.049l-2.826,3.311h-1.433l2.037-3.311H96.643z M92.497,93.887h2.038v11.207h-2.038V93.887z"/>
	<path fill="#231F20" d="M105.786,102.408c0,0.971,0.046,1.919,0.161,2.686h-1.828l-0.162-1.412h-0.07
		c-0.623,0.879-1.828,1.665-3.425,1.665c-2.269,0-3.425-1.596-3.425-3.218c0-2.71,2.406-4.188,6.734-4.167V97.73
		c0-0.9-0.255-2.59-2.547-2.569c-1.063,0-2.15,0.301-2.938,0.834l-0.463-1.364c0.926-0.581,2.291-0.973,3.699-0.973
		c3.429,0,4.263,2.337,4.263,4.561V102.408z M103.817,99.377c-2.222-0.047-4.743,0.345-4.743,2.521c0,1.342,0.879,1.942,1.898,1.942
		c1.479,0,2.428-0.924,2.752-1.872c0.07-0.232,0.093-0.464,0.093-0.648V99.377z"/>
	<path fill="#231F20" d="M123.635,88.656V102.2c0,0.995,0.047,2.127,0.09,2.894h-1.803l-0.093-1.944h-0.071
		c-0.6,1.248-1.943,2.196-3.771,2.196c-2.709,0-4.815-2.291-4.815-5.693c-0.021-3.726,2.315-5.994,5.023-5.994
		c1.736,0,2.869,0.811,3.38,1.688h0.046v-6.689H123.635z M121.621,98.448c0-0.254-0.023-0.601-0.093-0.854
		c-0.302-1.275-1.412-2.338-2.939-2.338c-2.106,0-3.36,1.85-3.36,4.305c0,2.27,1.14,4.145,3.313,4.145
		c1.364,0,2.616-0.928,2.986-2.431c0.069-0.28,0.093-0.559,0.093-0.882V98.448z"/>
	<path fill="#231F20" d="M128.172,99.861c0.045,2.756,1.783,3.89,3.842,3.89c1.459,0,2.361-0.254,3.103-0.578l0.373,1.456
		c-0.719,0.324-1.969,0.717-3.752,0.717c-3.45,0-5.511-2.29-5.511-5.669s1.99-6.019,5.257-6.019c3.679,0,4.631,3.193,4.631,5.255
		c0,0.417-0.024,0.718-0.073,0.948H128.172z M134.146,98.401c0.022-1.271-0.533-3.284-2.825-3.284c-2.081,0-2.964,1.875-3.125,3.284
		H134.146z"/>
	<path fill="#231F20" d="M143.544,96.92c0-1.178-0.022-2.105-0.091-3.031h1.804l0.116,1.854h0.046
		c0.556-1.044,1.853-2.084,3.702-2.084c1.553,0,3.96,0.925,3.96,4.768v6.668h-2.037v-6.461c0-1.804-0.673-3.31-2.593-3.31
		c-1.319,0-2.361,0.951-2.73,2.083c-0.094,0.255-0.14,0.602-0.14,0.95v6.737h-2.037V96.92z"/>
	<path fill="#231F20" d="M158.662,90.738c0,0.697-0.488,1.253-1.298,1.253c-0.741,0-1.228-0.556-1.228-1.253
		c0-0.692,0.512-1.273,1.275-1.273C158.151,89.465,158.662,90.024,158.662,90.738 M156.391,93.887h2.037v11.207h-2.037V93.887z"/>
	<path fill="#231F20" d="M161.811,96.921c0-1.179-0.021-2.107-0.093-3.033h1.806l0.113,1.854h0.051
		c0.553-1.045,1.85-2.084,3.705-2.084c1.549,0,3.953,0.926,3.953,4.768v6.668h-2.035v-6.46c0-1.804-0.67-3.312-2.593-3.312
		c-1.321,0-2.362,0.952-2.729,2.084c-0.094,0.254-0.141,0.603-0.141,0.95v6.737h-2.037V96.921z M163.708,91.969
		c-0.044-1.507,0.579-2.408,1.571-2.408c0.517,0,0.904,0.23,1.438,0.508c0.37,0.208,0.675,0.394,0.972,0.394
		c0.348,0,0.58-0.208,0.625-0.972h1.086c0.028,1.529-0.486,2.338-1.572,2.338c-0.51,0-0.946-0.23-1.412-0.485
		c-0.463-0.255-0.717-0.416-0.995-0.416c-0.369,0-0.556,0.394-0.603,1.042H163.708z"/>
	<path fill="#231F20" d="M182.53,102.408c0,0.971,0.044,1.919,0.16,2.686h-1.827l-0.162-1.412h-0.072
		c-0.625,0.879-1.828,1.665-3.42,1.665c-2.271,0-3.429-1.596-3.429-3.218c0-2.71,2.407-4.188,6.736-4.167V97.73
		c0-0.9-0.255-2.59-2.547-2.569c-1.067,0-2.152,0.301-2.939,0.834l-0.463-1.364c0.923-0.581,2.289-0.973,3.703-0.973
		c3.424,0,4.26,2.337,4.26,4.561V102.408z M180.563,99.377c-2.223-0.047-4.745,0.345-4.745,2.521c0,1.342,0.877,1.942,1.897,1.942
		c1.479,0,2.431-0.924,2.752-1.872c0.07-0.232,0.096-0.464,0.096-0.648V99.377z"/>
	<path fill="#231F20" d="M185.539,103.031c0.625,0.373,1.689,0.788,2.708,0.788c1.459,0,2.153-0.716,2.153-1.666
		c0-0.974-0.579-1.481-2.059-2.039c-2.039-0.736-2.988-1.826-2.988-3.17c0-1.806,1.479-3.286,3.867-3.286
		c1.133,0,2.129,0.299,2.73,0.693l-0.488,1.48c-0.438-0.275-1.25-0.671-2.292-0.671c-1.2,0-1.85,0.695-1.85,1.527
		c0,0.928,0.649,1.343,2.106,1.924c1.922,0.717,2.938,1.69,2.938,3.356c0,1.988-1.55,3.377-4.165,3.377
		c-1.227,0-2.361-0.321-3.148-0.785L185.539,103.031z"/>
	<path fill="#231F20" d="M193.411,107.962c0.505-1.39,1.133-3.865,1.39-5.554l2.268-0.231c-0.555,1.968-1.576,4.537-2.223,5.623
		L193.411,107.962z"/>
	<path fill="#231F20" d="M0.092,118.028c0-1.183-0.021-2.105-0.092-3.031h1.805l0.115,1.849h0.047
		c0.557-1.039,1.853-2.08,3.705-2.08c1.553,0,3.959,0.926,3.959,4.769v6.666H7.594v-6.46c0-1.804-0.672-3.309-2.594-3.309
		c-1.32,0-2.359,0.949-2.729,2.084c-0.097,0.255-0.14,0.6-0.14,0.947v6.737H0.092V118.028z"/>
	<path fill="#231F20" d="M15.21,111.848c0,0.695-0.487,1.252-1.294,1.252c-0.743,0-1.23-0.557-1.23-1.252
		c0-0.694,0.51-1.273,1.276-1.273C14.701,110.574,15.21,111.13,15.21,111.848 M12.941,114.996h2.039V126.2h-2.039V114.996z"/>
	<path fill="#231F20" d="M18.358,118.028c0-1.182-0.024-2.105-0.091-3.032h1.805l0.115,1.851h0.047
		c0.557-1.041,1.85-2.08,3.703-2.08c1.55,0,3.958,0.925,3.958,4.767v6.667h-2.034v-6.46c0-1.804-0.672-3.309-2.594-3.309
		c-1.322,0-2.364,0.949-2.732,2.084c-0.094,0.254-0.14,0.6-0.14,0.948v6.736h-2.037V118.028z M20.256,113.075
		c-0.047-1.505,0.578-2.407,1.576-2.407c0.508,0,0.902,0.231,1.436,0.51c0.369,0.209,0.67,0.393,0.972,0.393
		c0.345,0,0.578-0.207,0.622-0.972h1.092c0.023,1.528-0.49,2.338-1.576,2.338c-0.509,0-0.947-0.231-1.41-0.486
		s-0.721-0.417-0.996-0.417c-0.371,0-0.557,0.395-0.603,1.042H20.256z"/>
	<path fill="#231F20" d="M41.346,120.506c0,4.145-2.892,5.949-5.578,5.949c-3.01,0-5.371-2.223-5.371-5.762
		c0-3.727,2.478-5.927,5.556-5.927C39.169,114.767,41.346,117.102,41.346,120.506 M32.48,120.622c0,2.454,1.389,4.307,3.379,4.307
		c1.945,0,3.4-1.829,3.4-4.352c0-1.899-0.943-4.283-3.355-4.283C33.521,116.294,32.48,118.516,32.48,120.622"/>
	<path fill="#231F20" d="M43.639,124.141c0.623,0.37,1.69,0.788,2.707,0.788c1.459,0,2.152-0.718,2.152-1.665
		c0-0.975-0.576-1.484-2.057-2.04c-2.037-0.74-2.987-1.826-2.987-3.169c0-1.809,1.481-3.288,3.867-3.288
		c1.135,0,2.129,0.3,2.731,0.694l-0.486,1.48c-0.441-0.277-1.25-0.672-2.293-0.672c-1.203,0-1.85,0.697-1.85,1.528
		c0,0.924,0.646,1.343,2.107,1.923c1.919,0.716,2.938,1.688,2.938,3.354c0,1.991-1.552,3.38-4.168,3.38
		c-1.228,0-2.361-0.322-3.148-0.787L43.639,124.141z"/>
	<path fill="#231F20" d="M58.732,114.997l2.431,6.621c0.276,0.739,0.557,1.619,0.739,2.291h0.049
		c0.207-0.672,0.438-1.528,0.717-2.338l2.223-6.574h2.152l-3.057,7.985c-1.459,3.845-2.451,5.789-3.842,7.015
		c-1.019,0.856-1.988,1.203-2.5,1.296l-0.51-1.689c0.51-0.162,1.182-0.487,1.783-0.994c0.555-0.441,1.227-1.229,1.712-2.27
		c0.095-0.208,0.163-0.372,0.163-0.486c0-0.115-0.046-0.276-0.163-0.532l-4.118-10.324H58.732z"/>
	<path fill="#231F20" d="M81.676,123.517c0,0.974,0.045,1.92,0.16,2.685h-1.828l-0.162-1.412h-0.071
		c-0.625,0.879-1.827,1.666-3.425,1.666c-2.27,0-3.424-1.598-3.424-3.219c0-2.707,2.408-4.188,6.736-4.166v-0.229
		c0-0.904-0.254-2.594-2.549-2.572c-1.064,0-2.154,0.302-2.939,0.833l-0.463-1.363c0.929-0.578,2.289-0.972,3.703-0.972
		c3.428,0,4.262,2.335,4.262,4.56V123.517z M79.707,120.482c-2.224-0.046-4.748,0.348-4.748,2.523c0,1.343,0.883,1.945,1.899,1.945
		c1.481,0,2.431-0.924,2.755-1.875c0.07-0.232,0.094-0.465,0.094-0.651V120.482z"/>
	<path fill="#231F20" d="M94.614,109.765v13.542c0,0.995,0.046,2.131,0.095,2.895H92.9l-0.09-1.945h-0.069
		c-0.604,1.25-1.945,2.199-3.772,2.199c-2.709,0-4.816-2.292-4.816-5.693c-0.023-3.728,2.316-5.996,5.023-5.996
		c1.736,0,2.868,0.811,3.379,1.689h0.047v-6.69H94.614z M92.602,119.557c0-0.255-0.022-0.601-0.094-0.854
		c-0.299-1.276-1.41-2.341-2.938-2.341c-2.109,0-3.357,1.852-3.357,4.308c0,2.268,1.133,4.143,3.309,4.143
		c1.365,0,2.615-0.926,2.986-2.432c0.071-0.277,0.094-0.555,0.094-0.88V119.557z"/>
	<path fill="#231F20" d="M108.157,120.506c0,4.145-2.892,5.949-5.579,5.949c-3.007,0-5.371-2.223-5.371-5.762
		c0-3.727,2.479-5.927,5.557-5.927C105.98,114.767,108.157,117.102,108.157,120.506 M99.291,120.622
		c0,2.454,1.391,4.307,3.383,4.307c1.941,0,3.399-1.829,3.399-4.352c0-1.899-0.947-4.283-3.355-4.283
		C100.334,116.294,99.291,118.516,99.291,120.622"/>
	<rect x="110.729" y="109.764" fill="#231F20" width="2.038" height="16.436"/>
	<path fill="#231F20" d="M117.328,120.969c0.043,2.756,1.781,3.889,3.842,3.889c1.457,0,2.361-0.254,3.104-0.576l0.368,1.456
		c-0.717,0.324-1.967,0.718-3.748,0.718c-3.452,0-5.513-2.291-5.513-5.67c0-3.381,1.99-6.019,5.255-6.019
		c3.683,0,4.631,3.193,4.631,5.253c0,0.417-0.024,0.718-0.069,0.949H117.328z M123.3,119.511c0.021-1.275-0.533-3.287-2.825-3.287
		c-2.083,0-2.962,1.876-3.123,3.287H123.3z"/>
	<path fill="#231F20" d="M127.513,124.141c0.625,0.37,1.69,0.788,2.708,0.788c1.459,0,2.152-0.718,2.152-1.665
		c0-0.975-0.578-1.484-2.059-2.04c-2.037-0.74-2.988-1.826-2.988-3.169c0-1.809,1.482-3.288,3.869-3.288
		c1.133,0,2.127,0.3,2.728,0.694l-0.485,1.48c-0.441-0.277-1.248-0.672-2.29-0.672c-1.204,0-1.854,0.697-1.854,1.528
		c0,0.924,0.65,1.343,2.109,1.923c1.92,0.716,2.939,1.688,2.939,3.354c0,1.991-1.551,3.38-4.169,3.38
		c-1.224,0-2.36-0.322-3.146-0.787L127.513,124.141z"/>
	<path fill="#231F20" d="M144.943,125.808c-0.531,0.255-1.711,0.647-3.216,0.647c-3.382,0-5.58-2.292-5.58-5.717
		c0-3.451,2.36-5.973,6.019-5.973c1.207,0,2.269,0.301,2.823,0.602l-0.463,1.551c-0.485-0.255-1.25-0.531-2.36-0.531
		c-2.57,0-3.957,1.92-3.957,4.235c0,2.593,1.666,4.19,3.887,4.19c1.158,0,1.922-0.278,2.5-0.531L144.943,125.808z"/>
	<path fill="#231F20" d="M148.322,120.969c0.047,2.756,1.787,3.889,3.844,3.889c1.46,0,2.363-0.254,3.105-0.576l0.369,1.456
		c-0.719,0.324-1.969,0.718-3.75,0.718c-3.449,0-5.512-2.291-5.512-5.67c0-3.381,1.99-6.019,5.26-6.019
		c3.678,0,4.627,3.193,4.627,5.253c0,0.417-0.025,0.718-0.072,0.949H148.322z M154.297,119.511c0.021-1.275-0.531-3.287-2.823-3.287
		c-2.081,0-2.963,1.876-3.125,3.287H154.297z"/>
	<path fill="#231F20" d="M158.788,118.028c0-1.183-0.022-2.105-0.091-3.031h1.805l0.115,1.849h0.046
		c0.558-1.039,1.853-2.08,3.704-2.08c1.552,0,3.958,0.926,3.958,4.769v6.666h-2.037v-6.46c0-1.804-0.669-3.309-2.59-3.309
		c-1.321,0-2.361,0.949-2.733,2.084c-0.094,0.255-0.14,0.6-0.14,0.947v6.737h-2.037V118.028z"/>
	<path fill="#231F20" d="M173.999,112.311v2.687h2.919v1.55h-2.919v6.043c0,1.389,0.394,2.176,1.528,2.176
		c0.555,0,0.879-0.046,1.18-0.141l0.095,1.552c-0.396,0.14-1.021,0.28-1.808,0.28c-0.949,0-1.713-0.324-2.199-0.859
		c-0.555-0.624-0.787-1.619-0.787-2.937v-6.114h-1.734v-1.55h1.734v-2.083L173.999,112.311z"/>
	<path fill="#231F20" d="M180.205,120.969c0.044,2.756,1.779,3.889,3.84,3.889c1.459,0,2.359-0.254,3.102-0.576l0.371,1.456
		c-0.716,0.324-1.968,0.718-3.748,0.718c-3.449,0-5.51-2.291-5.51-5.67c0-3.381,1.989-6.019,5.253-6.019
		c3.681,0,4.627,3.193,4.627,5.253c0,0.417-0.021,0.718-0.067,0.949H180.205z M186.175,119.511c0.024-1.275-0.53-3.287-2.822-3.287
		c-2.085,0-2.965,1.876-3.127,3.287H186.175z"/>
	<path fill="#231F20" d="M190.39,124.141c0.625,0.37,1.688,0.788,2.706,0.788c1.461,0,2.154-0.718,2.154-1.665
		c0-0.975-0.578-1.484-2.06-2.04c-2.039-0.74-2.987-1.826-2.987-3.169c0-1.809,1.482-3.288,3.867-3.288
		c1.131,0,2.129,0.3,2.729,0.694l-0.484,1.48c-0.44-0.277-1.252-0.672-2.292-0.672c-1.203,0-1.854,0.697-1.854,1.528
		c0,0.924,0.65,1.343,2.111,1.923c1.918,0.716,2.938,1.688,2.938,3.354c0,1.991-1.553,3.38-4.167,3.38
		c-1.228,0-2.361-0.322-3.148-0.787L190.39,124.141z"/>
	<path fill="#231F20" d="M199.096,124.997c0-0.833,0.577-1.458,1.389-1.458c0.809,0,1.364,0.602,1.364,1.458
		c0,0.834-0.556,1.458-1.413,1.458C199.65,126.455,199.096,125.831,199.096,124.997"/>
	<path fill="#231F20" d="M14.652,136.741c0.599-0.097,1.383-0.183,2.383-0.183c1.221,0,2.121,0.285,2.689,0.799
		c0.518,0.455,0.844,1.154,0.844,2.008c0,0.871-0.258,1.553-0.739,2.055c-0.673,0.698-1.728,1.053-2.938,1.053
		c-0.373,0-0.713-0.012-1-0.084v3.849h-1.238V136.741z M15.891,141.377c0.271,0.07,0.614,0.1,1.027,0.1
		c1.496,0,2.408-0.742,2.408-2.039c0-1.284-0.912-1.896-2.266-1.896c-0.543,0-0.953,0.042-1.17,0.102V141.377z"/>
	<path fill="#231F20" d="M23.662,136.758c0.627-0.113,1.539-0.199,2.38-0.199c1.325,0,2.192,0.257,2.78,0.782
		c0.471,0.43,0.754,1.084,0.754,1.841c0,1.252-0.799,2.095-1.795,2.437v0.045c0.725,0.254,1.168,0.938,1.396,1.935
		c0.314,1.343,0.541,2.269,0.742,2.64h-1.285c-0.158-0.285-0.369-1.097-0.627-2.297c-0.283-1.326-0.811-1.822-1.939-1.866H24.9
		v4.163h-1.238V136.758z M24.9,141.134h1.268c1.328,0,2.169-0.728,2.169-1.827c0-1.236-0.899-1.779-2.211-1.779
		c-0.597,0-1.009,0.043-1.226,0.1V141.134z"/>
	<path fill="#231F20" d="M41.006,141.334c0,3.293-2.008,5.061-4.461,5.061c-2.549,0-4.318-1.982-4.318-4.889
		c0-3.053,1.882-5.047,4.447-5.047C39.31,136.459,41.006,138.469,41.006,141.334 M33.539,141.477c0,2.068,1.112,3.906,3.078,3.906
		c1.967,0,3.08-1.811,3.08-3.991c0-1.925-0.998-3.92-3.066-3.92C34.565,137.472,33.539,139.381,33.539,141.477"/>
	<path fill="#231F20" d="M46.152,146.237l-3.147-9.608h1.353l1.496,4.733c0.4,1.297,0.756,2.467,1.027,3.59h0.025
		c0.272-1.108,0.658-2.321,1.102-3.575l1.623-4.748h1.326l-3.436,9.608H46.152z"/>
	<rect x="53.413" y="136.628" fill="#231F20" width="1.252" height="9.608"/>
	<path fill="#231F20" d="M58.256,146.237v-9.608h1.369l3.064,4.859c0.697,1.126,1.268,2.141,1.711,3.124l0.044-0.017
		c-0.114-1.281-0.144-2.45-0.144-3.945v-4.021h1.168v9.608h-1.256l-3.053-4.875c-0.666-1.07-1.31-2.167-1.777-3.209l-0.045,0.016
		c0.071,1.211,0.086,2.366,0.086,3.961v4.107H58.256z"/>
	<path fill="#231F20" d="M75.76,145.938c-0.442,0.228-1.369,0.457-2.541,0.457c-2.705,0-4.729-1.713-4.729-4.876
		c0-3.022,2.04-5.043,5.019-5.043c1.187,0,1.951,0.255,2.279,0.426l-0.313,1.01c-0.455-0.229-1.125-0.398-1.924-0.398
		c-2.254,0-3.75,1.438-3.75,3.964c0,2.367,1.355,3.863,3.68,3.863c0.768,0,1.539-0.157,2.039-0.4L75.76,145.938z"/>
	<rect x="78.738" y="136.628" fill="#231F20" width="1.252" height="9.608"/>
	<path fill="#231F20" d="M85.141,143.216l-1,3.021h-1.279l3.275-9.608h1.481l3.282,9.608h-1.328l-1.025-3.021H85.141z
		 M88.303,142.246l-0.955-2.766c-0.213-0.629-0.354-1.196-0.498-1.752h-0.03c-0.142,0.556-0.285,1.152-0.481,1.738l-0.943,2.779
		H88.303z"/>
	<path fill="#231F20" d="M98.182,136.77c0.753-0.125,1.654-0.211,2.638-0.211c1.78,0,3.05,0.427,3.891,1.195
		c0.87,0.787,1.368,1.898,1.368,3.453c0,1.566-0.498,2.85-1.381,3.733c-0.918,0.897-2.396,1.382-4.263,1.382
		c-0.897,0-1.625-0.042-2.253-0.113V136.77z M99.42,145.269c0.313,0.041,0.771,0.057,1.256,0.057c2.665,0,4.089-1.481,4.089-4.078
		c0.015-2.267-1.267-3.706-3.888-3.706c-0.645,0-1.129,0.059-1.457,0.131V145.269z"/>
	<polygon fill="#231F20" points="114.06,141.73 110.339,141.73 110.339,145.197 114.502,145.197 114.502,146.236 109.084,146.236 
		109.084,136.629 114.287,136.629 114.287,137.672 110.339,137.672 110.339,140.706 114.06,140.706 	"/>
	<path fill="#231F20" d="M121.827,144.728c0.558,0.354,1.354,0.627,2.21,0.627c1.27,0,2.011-0.673,2.011-1.642
		c0-0.884-0.513-1.41-1.811-1.894c-1.566-0.573-2.538-1.401-2.538-2.739c0-1.496,1.238-2.604,3.107-2.604
		c0.971,0,1.698,0.226,2.111,0.467l-0.341,1.013c-0.299-0.185-0.943-0.457-1.812-0.457c-1.313,0-1.813,0.785-1.813,1.441
		c0,0.895,0.587,1.338,1.911,1.854c1.626,0.627,2.438,1.409,2.438,2.821c0,1.481-1.086,2.78-3.351,2.78
		c-0.925,0-1.938-0.285-2.451-0.629L121.827,144.728z"/>
	<path fill="#231F20" d="M131.993,143.216l-0.999,3.021h-1.284l3.279-9.608h1.479l3.282,9.608h-1.325l-1.025-3.021H131.993z
		 M135.156,142.246l-0.953-2.766c-0.217-0.629-0.359-1.196-0.503-1.752h-0.028c-0.143,0.556-0.287,1.152-0.484,1.738l-0.938,2.779
		H135.156z"/>
	<path fill="#231F20" d="M140.588,146.237v-9.608h1.366l3.063,4.859c0.703,1.126,1.273,2.141,1.713,3.124l0.045-0.017
		c-0.117-1.281-0.144-2.45-0.144-3.945v-4.021h1.168v9.608h-1.254l-3.05-4.875c-0.672-1.07-1.313-2.167-1.78-3.209l-0.044,0.016
		c0.068,1.211,0.084,2.366,0.084,3.961v4.107H140.588z"/>
	<polygon fill="#231F20" points="153.216,137.682 150.293,137.682 150.293,136.629 157.408,136.629 157.408,137.682 154.47,137.682 
		154.47,146.237 153.216,146.237 	"/>
	<path fill="#231F20" d="M160.386,143.216l-0.998,3.021h-1.283l3.28-9.608h1.48l3.28,9.608h-1.325l-1.027-3.021H160.386z
		 M163.553,142.246l-0.958-2.766c-0.214-0.629-0.356-1.196-0.498-1.752h-0.03c-0.139,0.556-0.285,1.152-0.481,1.738l-0.942,2.779
		H163.553z"/>
	<polygon fill="#231F20" points="173.416,136.629 178.591,136.629 178.591,137.672 174.668,137.672 174.668,140.863 178.29,140.863 
		178.29,141.891 174.668,141.891 174.668,146.236 173.416,146.236 	"/>
	<polygon fill="#231F20" points="186.758,141.73 183.035,141.73 183.035,145.197 187.197,145.197 187.197,146.236 181.781,146.236 
		181.781,136.629 186.982,136.629 186.982,137.672 183.035,137.672 183.035,140.706 186.758,140.706 	"/>
	<path fill="#231F20" d="M99.867,29.565c0,2.418-0.639,4.38-1.428,4.38s-1.431-1.962-1.431-4.38c0-2.416,0.642-4.375,1.431-4.375
		S99.867,27.149,99.867,29.565"/>
	<path fill="#231F20" d="M104.564,29.565c0,2.418-0.639,4.38-1.428,4.38c-0.786,0-1.427-1.962-1.427-4.38
		c0-2.416,0.641-4.375,1.427-4.375C103.926,25.19,104.564,27.149,104.564,29.565"/>
	<path fill="#231F20" d="M113.469,31.216c-0.023-0.012-0.044-0.023-0.063-0.036c-0.367-0.089-0.643-0.093-1.058-0.097
		c-0.254,0.071-0.471,0.104-0.589,0.229c-0.059,0.055-0.018,0.107-0.071,0.16c-0.22,0.326-0.108,0.599,0.009,0.841
		c0.279,1.006,0.42,2.023,0.42,3.053c0,2.267-1.196,4.44-3.594,6.52c-2.242,1.96-4.464,2.94-6.674,2.94h-1.063
		c-0.859,0-2.408-0.213-4.648-0.642c-0.799-0.246-1.428-0.475-1.889-0.69c-1.044-0.337-2.012-1.179-2.902-2.525
		c-1.141-1.686-1.707-3.932-1.707-6.75c0-0.95,0.063-1.715,0.185-2.297c0.024-0.115,0.05-0.223,0.067-0.324
		c-0.014-0.029-0.027-0.122-0.035-0.155c-0.026-0.064-0.086-0.126-0.154-0.194c-0.154-0.076-0.264-0.082-0.418-0.126
		c-0.553,0.052-0.814,0.223-0.911,0.32c-0.04,0.169-0.075,0.347-0.112,0.532c-0.276,1.382-0.416,2.411-0.416,3.087
		c0-0.183,0.104,0.615,0.324,2.395c0.398,3.347,1.995,5.773,4.79,7.276c2.085,1.142,4.692,1.705,7.827,1.705
		c2.731,0,5.404-0.984,8.015-2.948c2.089-1.566,3.455-2.949,4.101-4.144c0.793-1.414,1.193-2.794,1.193-4.145
		c0-0.83-0.076-1.613-0.23-2.349C113.722,32.201,113.587,31.656,113.469,31.216"/>
	<path fill="#231F20" d="M99.867,29.565c0,2.418-0.639,4.38-1.428,4.38s-1.431-1.962-1.431-4.38c0-2.416,0.642-4.375,1.431-4.375
		S99.867,27.149,99.867,29.565"/>
	<path fill="#231F20" d="M104.564,29.565c0,2.418-0.639,4.38-1.428,4.38c-0.786,0-1.427-1.962-1.427-4.38
		c0-2.416,0.641-4.375,1.427-4.375C103.926,25.19,104.564,27.149,104.564,29.565"/>
	<path fill="#231F20" d="M119.535,27.83c-0.955-2.057-2.901-4.19-5.85-6.4c-0.771-0.43-1.374-0.76-1.818-0.989
		c-0.448-0.232-1.469-0.624-3.065-1.176c-2.06-0.706-3.44-1.06-4.144-1.06c-3.932,0-6.589,0.091-7.969,0.276
		c-2.887,0.431-5.358,1.413-7.414,2.948c-2.487,1.842-4.621,4.697-6.402,8.565c-0.4,0.89-0.648,1.98-0.738,3.271
		c-0.061,0.705-0.137,1.595-0.229,2.669c-0.093,0.89-0.138,1.368-0.138,1.428c0,2.612,0.643,5.193,1.934,7.741
		c1.416,2.894,3.465,5.269,6.141,7.126c-0.17-0.077-0.356-0.148-0.561-0.209c-1.504-0.468-3.322-0.543-4.777,0.141
		c-1.687,0.791-1.285,2.204,0.127,3.033c1.463,0.859,3.148,1.218,4.807,0.987c-0.107,0.456-0.162,0.834-0.162,1.13
		c0,0.027-0.032,0.027-0.096,0c-0.028,0-0.045,0.044-0.045,0.134c0,0.986,2.072,2.03,6.219,3.133
		c0.123,1.381,0.494,2.341,1.105,2.88c0.613,0.536,1.826,0.806,3.641,0.806c1.013,0,1.933-0.29,2.757-0.875
		c0.989-0.677,1.523-1.583,1.616-2.72c1.046-0.277,1.811-0.463,2.305-0.553c0.889-0.275,1.775-0.552,2.67-0.827
		c1.504-0.552,2.254-1.072,2.254-1.565c0-0.094-0.035-0.202-0.111-0.325c-0.08-0.122-0.118-0.212-0.118-0.275
		c-0.08-0.484-0.16-0.934-0.231-1.366c0.315,0.082,0.66,0.134,1.039,0.148c1.478,0.058,3.356-0.369,4.422-1.464
		c1.289-1.332,0.069-2.39-1.293-2.864c-1.094-0.378-2.31-0.414-3.463-0.179c2.571-1.391,4.502-2.784,5.793-4.176
		c2.239-2.49,3.471-5.514,3.681-9.075c0-0.216,0.04-0.583,0.116-1.105c0.08-0.523,0.115-0.813,0.115-0.874
		C121.65,33.742,120.945,30.963,119.535,27.83 M89.151,54.439c-0.871,0.258-1.652,0.205-2.515-0.053
		c-0.326-0.099-0.758-0.299-1.008-0.534c-0.066-0.062,0.877-0.43,0.934-0.448c0.644-0.184,1.408-0.102,2.046,0.056
		c0.552,0.136,0.651,0.494,0.711,0.942C89.262,54.414,89.206,54.422,89.151,54.439 M99.448,62.678
		c-0.407-0.042-0.851-0.155-1.33-0.35c-0.769-0.338-1.135-0.767-1.104-1.29v-0.32h2.5c-0.043,0.072-0.068,0.16-0.068,0.251v1.674
		C99.445,62.652,99.448,62.665,99.448,62.678 M102.724,61.18c0.03,0.428-0.263,0.81-0.874,1.148
		c-0.463,0.247-0.861,0.369-1.198,0.369H100.5c0.002-0.017,0.006-0.036,0.006-0.054v-1.674c0-0.091-0.022-0.179-0.063-0.251h2.28
		V61.18z M105.58,58.874c-2.153,0.216-4.236,0.323-6.266,0.323c-1.813,0-3.608-0.246-5.389-0.737
		c-2.148-0.552-3.195-1.261-3.131-2.118l0.141-0.552c0.025,0.018,0.354-1.01,0.402-1.106c0-0.004,0.135-0.657,0.193-0.82
		c0.021-0.06,0.016-0.15,0.046-0.257c0.03-0.109,0.046-0.196,0.046-0.26c2.148,0.552,4.653,0.829,7.508,0.829
		c0.123,0,0.354,0.017,0.689,0.045c0.339,0.031,0.537,0.049,0.6,0.049c1.717,0,4.543-0.508,8.472-1.521v0.152
		c-0.112,0.147,0.509,2.427,0.509,2.427c0,0.062,0.105,0.815,0.322,2.256C107.574,58.383,106.191,58.813,105.58,58.874
		 M113.966,52.93c0.349,0.01,0.69,0.08,1.024,0.173c-0.086-0.024-0.744,0.567-0.864,0.635c-0.527,0.315-1.181,0.44-1.772,0.513
		c-0.716,0.084-0.914-0.103-1.13-0.569c0.084-0.019,0.162-0.053,0.235-0.095C112.24,53.109,113.05,52.901,113.966,52.93
		 M112.764,49.295c-3.748,2.272-8.262,3.409-13.543,3.409c-1.781,0-4.006-0.339-6.678-1.013c-0.979-0.556-1.779-1.051-2.393-1.5
		c-0.616-0.444-1.201-0.973-1.748-1.588c-0.313-0.307-0.909-0.998-1.799-2.072c-2.244-2.702-3.363-5.711-3.363-9.029
		c0-0.858,0.145-2.25,0.436-4.168c0.293-1.919,0.562-3.137,0.81-3.661c0.704-1.475,1.241-2.471,1.608-2.991
		c3.471-4.853,7.939-7.279,13.406-7.279c0.092,0,0.444,0.053,1.057,0.16c0.615,0.108,0.969,0.162,1.061,0.162
		c0.059,0,0.354-0.024,0.877-0.069c0.52-0.048,0.826-0.069,0.92-0.069c1.043,0,2.686,0.432,4.927,1.288
		c2.149,0.799,3.716,1.552,4.698,2.258c2.271,1.659,4.041,3.916,5.299,6.769c1.013,2.334,1.52,4.593,1.52,6.772
		C119.857,42.2,117.492,46.409,112.764,49.295"/>
	<path fill="#E42385" d="M79.367,60.254l-7.262,7.262c6.256,6.444,14.665,10.787,24.07,11.862V69.023
		C89.613,68.002,83.764,64.833,79.367,60.254"/>
	<path fill="#9AC45B" d="M60.832,39.711c0,7.601,2.123,14.711,5.813,20.76l7.552-7.551c-1.982-3.977-3.1-8.464-3.1-13.209
		c0-14.825,10.873-27.11,25.078-29.315V0.041C76.283,2.317,60.832,19.206,60.832,39.711"/>
	<path fill="#1DA5DF" d="M105.016,0v10.347c14.371,2.062,25.415,14.421,25.415,29.363c0,4.836-1.156,9.401-3.214,13.437l7.535,7.535
		c3.77-6.096,5.945-13.279,5.945-20.972C140.697,19.09,125.07,2.122,105.016,0"/>
	<path fill="#E42385" d="M105.016,69.073v10.345c9.457-1.002,17.929-5.303,24.242-11.732l-7.262-7.259
		C117.545,64.988,111.629,68.122,105.016,69.073"/>
</g>
</svg>
